<svg width="203" height="44" viewBox="0 0 203 44" fill="none" xmlns="http://www.w3.org/2000/svg">
<g id="bc-logo.svg" clip-path="url(#clip0_301_297)">
<g id="Layer 2">
<g id="Layer 1">
<g id="Group 1">
<path id="Vector" d="M57.8666 28.3631C54.6134 34.8303 44.8541 32.5271 44.8541 25.2986V11.6355H47.6257V19.8204C53.4098 15.4872 61.1002 21.9024 57.8666 28.3631ZM55.8496 25.2986C55.8496 24.4854 55.6085 23.6904 55.1566 23.0141C54.7048 22.3379 54.0626 21.8109 53.3113 21.4997C52.5599 21.1885 51.7331 21.107 50.9355 21.2657C50.1378 21.4243 49.4052 21.816 48.8301 22.391C48.255 22.9661 47.8634 23.6988 47.7047 24.4964C47.5461 25.2941 47.6275 26.1208 47.9387 26.8722C48.25 27.6236 48.777 28.2658 49.4532 28.7176C50.1294 29.1694 50.9244 29.4106 51.7377 29.4106C52.2779 29.4114 52.813 29.3057 53.3123 29.0993C53.8115 28.893 54.2652 28.5901 54.6472 28.2081C55.0292 27.8261 55.332 27.3725 55.5384 26.8732C55.7447 26.3739 55.8505 25.8389 55.8496 25.2986Z" fill="#052F51"/>
<path id="Vector_2" d="M63.5986 25.9948C63.7306 26.7681 64.0811 27.4875 64.6088 28.0681C65.1364 28.6487 65.8191 29.0662 66.5763 29.2714C67.3335 29.4766 68.1336 29.461 68.8822 29.2262C69.6307 28.9915 70.2965 28.5475 70.801 27.9467L73.449 28.9291C72.6955 30.1437 71.5803 31.0915 70.2602 31.6395C68.9401 32.1875 67.4815 32.3081 66.0894 31.9843C64.6972 31.6605 63.4415 30.9086 62.4988 29.8343C61.556 28.76 60.9736 27.4172 60.8334 25.9948C60.8083 25.7788 60.7953 25.5616 60.7944 25.3442C60.7983 24.9911 60.8288 24.6388 60.8855 24.2902C60.9351 23.9508 61.0112 23.6158 61.1132 23.2882C61.2874 22.7363 61.5324 22.2093 61.8419 21.7202C62.5298 20.5995 63.5263 19.701 64.7119 19.1322C65.8975 18.5635 67.2219 18.3486 68.5265 18.5134C69.8311 18.6782 71.0605 19.2156 72.0675 20.0614C73.0744 20.9071 73.8161 22.0252 74.2038 23.2817C74.416 23.9464 74.5235 24.64 74.5226 25.3377C74.5226 25.5719 74.5226 25.7996 74.5226 25.9883L63.5986 25.9948ZM64.093 23.2557H71.2044C70.8733 22.6831 70.4089 22.1988 69.8507 21.8439C69.2925 21.4891 68.657 21.2741 67.998 21.2173C67.339 21.1604 66.676 21.2634 66.0653 21.5175C65.4546 21.7715 64.9142 22.1692 64.4899 22.6766C64.3422 22.8586 64.2095 23.0523 64.093 23.2557Z" fill="#052F51"/>
<path id="Vector_3" d="M79.3763 22.5725C79.3763 22.7519 79.4116 22.9296 79.4803 23.0954C79.5489 23.2611 79.6496 23.4117 79.7764 23.5386C79.9033 23.6655 80.0539 23.7661 80.2197 23.8348C80.3855 23.9035 80.5631 23.9388 80.7426 23.9388H83.781C84.3343 23.9168 84.8864 24.0067 85.4041 24.2033C85.9218 24.3999 86.3944 24.699 86.7937 25.0827C87.193 25.4664 87.5106 25.9267 87.7276 26.4362C87.9446 26.9457 88.0565 27.4937 88.0565 28.0475C88.0565 28.6012 87.9446 29.1493 87.7276 29.6588C87.5106 30.1682 87.193 30.6286 86.7937 31.0123C86.3944 31.396 85.9218 31.6951 85.4041 31.8917C84.8864 32.0882 84.3343 32.1782 83.781 32.1562H77.6001V29.4171H83.781C84.1434 29.4171 84.4909 29.2731 84.7471 29.0169C85.0034 28.7606 85.1473 28.4131 85.1473 28.0507C85.1473 27.6884 85.0034 27.3409 84.7471 27.0846C84.4909 26.8284 84.1434 26.6844 83.781 26.6844H80.7491C79.6877 26.6422 78.6838 26.1908 77.9478 25.4249C77.2117 24.659 76.8007 23.638 76.8007 22.5757C76.8007 21.5135 77.2117 20.4925 77.9478 19.7266C78.6838 18.9606 79.6877 18.5093 80.7491 18.467H86.93V21.2062H80.7491C80.5691 21.2053 80.3907 21.24 80.2242 21.3083C80.0577 21.3766 79.9063 21.4771 79.7787 21.604C79.6512 21.731 79.55 21.8819 79.4809 22.0481C79.4118 22.2143 79.3763 22.3925 79.3763 22.5725Z" fill="#052F51"/>
<path id="Vector_4" d="M92.7986 18.4672H96.9431V21.1998H92.8312V25.3118C92.8312 25.8515 92.9376 26.3858 93.1443 26.8844C93.351 27.3829 93.654 27.8357 94.0359 28.2171C94.4178 28.5984 94.8712 28.9006 95.37 29.1066C95.8689 29.3125 96.4034 29.4181 96.9431 29.4172V32.1303C96.0437 32.1312 95.153 31.9548 94.3218 31.6112C93.4906 31.2676 92.7353 30.7636 92.0991 30.1279C91.4628 29.4922 90.9581 28.7374 90.6137 27.9066C90.2693 27.0757 90.092 26.1851 90.092 25.2857V11.5901H92.8312L92.7986 18.4672Z" fill="#052F51"/>
<path id="Vector_5" d="M102.63 25.9297C102.629 26.7427 102.869 27.5376 103.321 28.2137C103.772 28.8898 104.414 29.4166 105.165 29.7274C105.917 30.0382 106.743 30.119 107.54 29.9595C108.338 29.8 109.069 29.4074 109.643 28.8315L111.595 30.7834C110.637 31.7417 109.416 32.3943 108.087 32.6588C106.758 32.9233 105.381 32.7877 104.129 32.2692C102.877 31.7507 101.807 30.8726 101.054 29.7459C100.301 28.6192 99.8991 27.2945 99.8991 25.9395C99.8991 24.5844 100.301 23.2597 101.054 22.133C101.807 21.0064 102.877 20.1282 104.129 19.6097C105.381 19.0912 106.758 18.9557 108.087 19.2201C109.416 19.4846 110.637 20.1373 111.595 21.0956L109.643 23.0474C109.071 22.4727 108.341 22.0805 107.545 21.9204C106.75 21.7603 105.925 21.8394 105.174 22.1478C104.424 22.4562 103.782 22.98 103.329 23.6531C102.876 24.3262 102.633 25.1184 102.63 25.9297Z" fill="#052F51"/>
<path id="Vector_6" d="M120.587 32.8135C119.232 32.8135 117.907 32.4115 116.78 31.6584C115.653 30.9053 114.775 29.835 114.257 28.5827C113.738 27.3305 113.603 25.9526 113.868 24.6234C114.133 23.2943 114.786 22.0735 115.745 21.1157C116.703 20.1578 117.925 19.5058 119.254 19.2422C120.584 18.9786 121.961 19.1152 123.213 19.6347C124.465 20.1542 125.534 21.0334 126.286 22.1609C127.038 23.2884 127.439 24.6136 127.438 25.9689C127.436 27.7848 126.714 29.5257 125.429 30.8092C124.144 32.0926 122.403 32.8135 120.587 32.8135ZM120.587 30.0744C121.4 30.0718 122.194 29.8283 122.868 29.3746C123.543 28.9209 124.068 28.2774 124.377 27.5255C124.686 26.7735 124.765 25.9468 124.605 25.1499C124.444 24.3529 124.051 23.6215 123.474 23.048C122.898 22.4745 122.165 22.0846 121.367 21.9278C120.57 21.7709 119.743 21.854 118.993 22.1666C118.242 22.4792 117.601 23.0073 117.151 23.684C116.7 24.3608 116.461 25.1559 116.462 25.9689C116.462 26.5097 116.569 27.0452 116.776 27.5445C116.984 28.0439 117.288 28.4973 117.671 28.8788C118.054 29.2603 118.509 29.5623 119.01 29.7675C119.51 29.9726 120.046 30.0769 120.587 30.0744Z" fill="#052F51"/>
<path id="Vector_7" d="M146.02 23.9194V32.8134H143.281V23.9194C143.251 23.3949 143.022 22.9017 142.64 22.5409C142.259 22.18 141.753 21.979 141.228 21.979C140.703 21.979 140.197 22.18 139.816 22.5409C139.434 22.9017 139.205 23.3949 139.175 23.9194V32.8134H136.43V23.9194C136.4 23.3949 136.171 22.9017 135.789 22.5409C135.407 22.18 134.902 21.979 134.377 21.979C133.852 21.979 133.346 22.18 132.964 22.5409C132.583 22.9017 132.354 23.3949 132.324 23.9194V32.8134H129.585V23.9194C129.583 22.9664 129.866 22.0347 130.397 21.2433C130.928 20.452 131.683 19.8371 132.565 19.4773C133.448 19.1175 134.418 19.0291 135.351 19.2235C136.283 19.4179 137.137 19.8863 137.802 20.5686C138.468 19.8863 139.321 19.4179 140.254 19.2235C141.187 19.0291 142.157 19.1175 143.039 19.4773C143.922 19.8371 144.677 20.452 145.208 21.2433C145.739 22.0347 146.021 22.9664 146.02 23.9194Z" fill="#052F51"/>
<path id="Vector_8" d="M161.147 22.8848C164.4 29.3456 156.69 35.7607 150.906 31.4276V39.6449H148.167V25.9818C148.167 18.7208 157.913 16.4176 161.147 22.8848ZM159.13 25.9493C159.131 25.1357 158.891 24.3401 158.44 23.663C157.989 22.986 157.347 22.4579 156.596 22.1457C155.845 21.8335 155.018 21.7511 154.22 21.909C153.422 22.067 152.688 22.4581 152.113 23.0329C151.537 23.6077 151.145 24.3404 150.985 25.1382C150.826 25.936 150.907 26.7631 151.218 27.5149C151.529 28.2666 152.056 28.9092 152.733 29.3613C153.409 29.8134 154.204 30.0547 155.018 30.0547C156.107 30.0547 157.152 29.6224 157.923 28.8527C158.694 28.0829 159.128 27.0387 159.13 25.9493Z" fill="#052F51"/>
<path id="Vector_9" d="M178 33V26.0373C178.009 24.4604 177.485 22.9265 176.513 21.6846C175.54 20.4427 174.177 19.5656 172.643 19.1954C171.109 18.8253 169.495 18.9839 168.063 19.6456C166.631 20.3072 165.464 21.4331 164.752 22.8405C164.041 24.2479 163.826 25.8544 164.142 27.3993C164.459 28.9441 165.288 30.3368 166.496 31.3514C167.704 32.366 169.22 32.943 170.797 32.9887C172.374 33.0345 173.921 32.5463 175.185 31.6035V33H178ZM171.02 21.8543C171.848 21.8543 172.657 22.0997 173.345 22.5593C174.033 23.0189 174.57 23.6722 174.887 24.4365C175.203 25.2009 175.286 26.0419 175.125 26.8533C174.963 27.6647 174.565 28.4101 173.979 28.995C173.394 29.58 172.648 29.9784 171.836 30.1398C171.024 30.3012 170.183 30.2184 169.418 29.9018C168.653 29.5852 168 29.0491 167.54 28.3612C167.08 27.6733 166.834 26.8646 166.834 26.0373C166.834 24.9279 167.275 23.8639 168.06 23.0795C168.845 22.295 169.91 21.8543 171.02 21.8543Z" fill="#052F51"/>
<path id="Vector_10" d="M182.695 20.4905C183.864 19.5734 185.316 19.0905 186.801 19.1242V21.8633C186.262 21.8625 185.727 21.9681 185.229 22.1741C184.73 22.3801 184.277 22.6825 183.896 23.0639C183.515 23.4453 183.212 23.8982 183.006 24.3967C182.8 24.8951 182.695 25.4294 182.695 25.9688V32.8198H179.956V19.1177H182.695V20.4905Z" fill="#052F51"/>
<path id="Vector_11" d="M191.772 26.652C191.904 27.4254 192.254 28.1448 192.782 28.7253C193.31 29.3059 193.992 29.7234 194.749 29.9287C195.507 30.1339 196.307 30.1182 197.055 29.8834C197.804 29.6487 198.47 29.2047 198.974 28.6039L201.622 29.5864C200.869 30.8009 199.753 31.7488 198.433 32.2968C197.113 32.8447 195.655 32.9653 194.263 32.6415C192.87 32.3177 191.615 31.5658 190.672 30.4915C189.729 29.4172 189.147 28.0745 189.007 26.652C188.982 26.436 188.969 26.2188 188.968 26.0014C188.971 25.6483 189.002 25.296 189.059 24.9474C189.108 24.608 189.184 24.273 189.286 23.9454C189.722 22.5538 190.59 21.3375 191.765 20.474C192.94 19.6105 194.36 19.1448 195.819 19.1448C197.277 19.1448 198.697 19.6105 199.872 20.474C201.047 21.3375 201.915 22.5538 202.351 23.9454C202.563 24.6101 202.671 25.3037 202.67 26.0014C202.669 26.2188 202.656 26.436 202.631 26.652H191.772ZM192.266 23.9129H199.371C199.041 23.3403 198.577 22.856 198.019 22.5011C197.462 22.1462 196.827 21.9311 196.168 21.8743C195.509 21.8174 194.847 21.9204 194.237 22.1745C193.626 22.4287 193.087 22.8264 192.663 23.3338C192.515 23.5158 192.383 23.7095 192.266 23.9129Z" fill="#052F51"/>
</g>
<path id="Vector_12" d="M35.1338 9.20894L22.1538 1.72025C21.2241 1.18347 20.1694 0.900879 19.0958 0.900879C18.0223 0.900879 16.9676 1.18347 16.0379 1.72025L3.05794 9.20894C2.12776 9.74675 1.35549 10.5199 0.818721 11.4507C0.281954 12.3814 -0.000409397 13.4371 4.45521e-07 14.5115V29.528C0.00073178 30.6013 0.283636 31.6556 0.820347 32.5852C1.35706 33.5147 2.12871 34.2868 3.05794 34.8241L5.6214 36.301L2.42683 43.1L10.5336 39.1052L16.0379 42.2802C16.9676 42.817 18.0223 43.0996 19.0958 43.0996C20.1694 43.0996 21.2241 42.817 22.1538 42.2802L35.1338 34.7915C36.057 34.2562 36.8243 33.4889 37.3596 32.5656C37.8948 31.6423 38.1794 30.5952 38.1852 29.528V14.5636C38.1954 13.481 37.9184 12.415 37.3824 11.4743C36.8463 10.5336 36.0704 9.75196 35.1338 9.20894Z" fill="#0C70C1"/>
<path id="Vector_13" fill-rule="evenodd" clip-rule="evenodd" d="M23.3119 32.7288C24.5642 32.7311 25.7853 32.3384 26.8015 31.6067C27.8177 30.875 28.5773 29.8414 28.9723 28.653C29.3672 27.4647 29.3773 26.182 29.0012 24.9876C28.6251 23.7931 27.8819 22.7477 26.8773 22C27.8819 21.2523 28.6251 20.2069 29.0012 19.0124C29.3773 17.818 29.3672 16.5353 28.9723 15.347C28.5773 14.1586 27.8177 13.125 26.8015 12.3933C25.7853 11.6615 24.5642 11.2689 23.3119 11.2712H9.36902V32.7418H23.3119M18.9072 20.8094V23.1906H23.3119C24.261 23.1906 25.1712 23.5677 25.8422 24.2387C26.5133 24.9098 26.8904 25.82 26.8904 26.7691C26.8904 27.7181 26.5133 28.6283 25.8422 29.2994C25.1712 29.9705 24.261 30.3475 23.3119 30.3475H11.7503V13.659H23.3119C24.261 13.659 25.1712 14.036 25.8422 14.7071C26.5133 15.3782 26.8904 16.2884 26.8904 17.2374C26.8904 18.1865 26.5133 19.0967 25.8422 19.7678C25.1712 20.4388 24.261 20.8159 23.3119 20.8159L18.9072 20.8094ZM16.5194 18.4216H23.3119C23.6277 18.4216 23.9305 18.2961 24.1538 18.0728C24.3771 17.8495 24.5026 17.5467 24.5026 17.2309C24.5026 16.9151 24.3771 16.6123 24.1538 16.389C23.9305 16.1657 23.6277 16.0403 23.3119 16.0403H14.1316V27.9597H23.3119C23.6277 27.9597 23.9305 27.8343 24.1538 27.611C24.3771 27.3877 24.5026 27.0849 24.5026 26.7691C24.5026 26.4533 24.3771 26.1505 24.1538 25.9272C23.9305 25.7039 23.6277 25.5784 23.3119 25.5784H16.5194V18.4216Z" fill="white"/>
</g>
</g>
</g>
<defs>
<clipPath id="clip0_301_297">
<rect width="202.67" height="42.1995" fill="white" transform="translate(0 0.900238)"/>
</clipPath>
</defs>
</svg>
