<svg width="56" height="59" viewBox="0 0 56 59" fill="none" xmlns="http://www.w3.org/2000/svg">
<path d="M54.1624 58.7656C53.6018 58.7656 53.2281 58.3919 53.2281 57.8313C53.2281 55.5888 52.2937 51.2906 45.6596 47.6466C44.445 46.9925 42.95 46.4319 41.2681 45.7778C37.2503 44.2828 32.5784 42.5075 32.5784 38.77V35.0325C32.5784 34.4719 32.9521 34.0981 33.5128 34.0981C34.0734 34.0981 34.4471 34.4719 34.4471 35.0325V38.77C34.4471 41.1994 38.2781 42.6944 41.9221 44.0959C43.604 44.75 45.1925 45.3106 46.5006 46.0581C53.9756 50.1694 55.0968 55.215 55.0968 57.8313C55.0968 58.3919 54.7231 58.7656 54.1624 58.7656ZM1.83745 58.7656C1.27683 58.7656 0.903076 58.3919 0.903076 57.8313C0.903076 55.215 2.02433 50.0759 9.40589 46.0581C10.714 45.3106 12.3025 44.75 13.9843 44.0959C17.6284 42.6944 21.4593 41.2928 21.4593 38.77V35.0325C21.4593 34.4719 21.8331 34.0981 22.3937 34.0981C22.9543 34.0981 23.3281 34.4719 23.3281 35.0325V38.77C23.3281 42.5075 18.7496 44.2828 14.6384 45.7778C13.05 46.4319 11.4615 46.9925 10.2468 47.6466C3.7062 51.2906 2.77183 55.5888 2.77183 57.8313C2.77183 58.3919 2.39808 58.7656 1.83745 58.7656Z" fill="#E3E3E3"/>
<path d="M28 53.1594C22.3938 53.1594 17.2547 49.8891 15.0122 44.75C14.8253 44.2828 15.0122 43.7222 15.4794 43.5353C15.9466 43.3485 16.5072 43.5353 16.6941 44.0025C18.6562 48.3941 23.1412 51.2906 28 51.2906C32.8587 51.2906 37.3437 48.3941 39.3059 44.0025C39.4928 43.5353 40.0534 43.3485 40.5206 43.5353C40.9878 43.7222 41.1747 44.2828 40.9878 44.75C38.7453 49.8891 33.6062 53.1594 28 53.1594ZM28 38.2094C23.0478 38.2094 18.2825 33.5375 16.8809 27.5575C15.5728 27.0903 13.9844 25.6888 13.9844 22.325C13.9844 21.4841 14.0778 20.6431 14.3581 19.9891C14.6384 19.1481 15.3859 18.5875 16.3203 18.4941C18.8431 18.2138 19.5906 16.2516 20.4316 13.355C20.9922 11.2994 21.6462 9.15033 23.7953 9.15033C24.9166 9.15033 25.8509 9.52408 26.505 9.80439C26.9722 9.43064 27.8131 9.15033 29.2147 9.15033C31.3637 9.15033 32.8587 11.2994 34.5406 13.6353C36.1291 15.8778 37.8109 18.2138 39.8666 18.4941C40.7075 18.5875 41.3616 19.1481 41.7353 19.8956C41.9222 20.6431 42.0156 21.3906 42.0156 22.325C42.0156 25.6888 40.3338 27.0903 39.1191 27.5575C37.7175 33.5375 32.9522 38.2094 28 38.2094ZM16.5072 20.4563C16.3203 20.4563 16.2269 20.5497 16.1334 20.7366C15.9466 21.1103 15.8531 21.671 15.8531 22.325C15.8531 25.5953 17.7219 25.8756 17.8153 25.8756C18.1891 25.8756 18.5628 26.2494 18.6562 26.6231C19.7775 32.6031 24.3559 36.3406 28 36.3406C31.6441 36.3406 36.2225 32.6031 37.3438 26.6231C37.4372 26.2494 37.7175 25.8756 38.1847 25.8756C38.3716 25.8756 40.1469 25.5019 40.1469 22.325C40.1469 21.4841 39.96 21.0169 39.8666 20.7366C39.7731 20.5497 39.6797 20.4563 39.4928 20.4563C36.5962 20.0825 34.6341 17.2794 32.8588 14.85C31.5506 13.0747 30.2425 11.206 29.1213 11.206C27.7197 11.206 27.3459 11.6731 27.3459 11.6731C27.2525 11.86 27.0656 12.0469 26.7853 12.0469C26.505 12.1403 26.2247 12.0469 26.0378 11.86C26.0378 11.86 25.1034 11.1125 23.7953 11.1125C23.1412 11.1125 22.7675 12.2338 22.2069 14.0091C21.4594 16.5319 20.4316 20.0825 16.5072 20.4563Z" fill="#E3E3E3"/>
<path d="M43.0434 38.2094C39.6796 38.2094 38.3715 37.5553 38.2781 37.5553C37.8109 37.3684 37.624 36.8078 37.9043 36.3406C38.0912 35.8734 38.6518 35.6866 39.119 35.9669C39.5862 36.2472 40.2403 36.4341 43.0434 36.4341C45.7531 36.4341 46.6874 34.4719 46.6874 32.6966C46.6874 29.8934 45.2859 26.9034 44.6318 25.5019C44.0712 24.2872 44.1646 22.7922 44.2581 21.2972C44.3515 19.8956 44.4449 18.4941 44.0712 17.0925C43.604 15.2238 42.3893 13.8222 41.2681 12.6075C40.7074 12.0469 40.2403 11.4863 39.8665 10.9256C39.4928 10.365 39.119 9.61751 38.7453 8.77657C37.5306 5.97344 36.0356 2.70313 31.7374 2.70313C28.1868 2.70313 26.8787 4.19813 26.8787 4.19813C26.5984 4.57188 25.9443 4.66532 25.5706 4.29157C25.1968 4.01126 25.1034 3.35719 25.3837 2.98344C25.4771 2.98344 27.159 0.834381 31.7374 0.834381C37.2503 0.834381 39.2124 5.03907 40.5206 7.84219C40.8943 8.58969 41.1746 9.24376 41.4549 9.61751C41.8287 10.0847 42.2959 10.6453 42.7631 11.1125C43.9778 12.5141 45.4728 14.1025 46.0334 16.4384C46.4071 18.1203 46.3137 19.8022 46.2203 21.2038C46.1268 22.6053 46.0334 23.7266 46.4071 24.5675C47.1546 26.1559 48.5562 29.3328 48.5562 32.5097C48.5562 35.4063 46.8743 38.2094 43.0434 38.2094Z" fill="#E3E3E3"/>
<path d="M12.9564 38.2094C9.12548 38.2094 7.4436 35.4063 7.4436 32.6031C7.4436 29.4263 8.9386 26.1559 9.59267 24.6609C9.96642 23.9134 9.87298 22.6988 9.77954 21.2972C9.6861 19.8022 9.59267 18.2138 9.96642 16.5319C10.527 14.1025 11.9286 12.6075 13.2367 11.2059C13.7039 10.6453 14.1711 10.1781 14.5449 9.71094C14.8252 9.24375 15.1989 8.58969 15.4792 7.93563C16.6005 5.41282 18.2824 1.76875 23.328 1.76875C24.9164 1.76875 26.5049 2.70313 26.5983 2.89C27.0655 3.17032 27.1589 3.73094 26.8786 4.19813C26.5983 4.66532 26.0377 4.75875 25.5705 4.47844C25.2902 4.19813 24.1689 3.6375 23.328 3.6375C19.497 3.6375 18.2824 6.25375 17.1611 8.68313C16.7874 9.43063 16.507 10.1781 16.0399 10.7388L14.6383 12.4206C13.517 13.7288 12.3024 15.0369 11.8352 16.9056C11.5549 18.3072 11.5549 19.8022 11.6483 21.1103C11.7417 22.6988 11.8352 24.1003 11.2745 25.315C10.7139 26.81 9.31235 29.8 9.31235 32.6031C9.31235 34.3784 10.2467 36.3406 12.9564 36.3406C15.853 36.3406 16.8808 35.8734 16.9742 35.8734C17.4414 35.6866 18.002 35.8734 18.1889 36.3406C18.3758 36.8078 18.1889 37.3684 17.8152 37.5553C17.6283 37.5553 16.3202 38.2094 12.9564 38.2094Z" fill="#E3E3E3"/>
</svg>
