<svg width="18" height="18" viewBox="0 0 18 18" fill="none" xmlns="http://www.w3.org/2000/svg">
<path d="M14.359 5.40662V7.28607H14.4841C15.2712 7.28607 15.9111 7.92603 15.9111 8.71312V16.5729C15.9111 17.36 15.2712 18 14.4841 18H3.51636C2.72928 18 2.08931 17.36 2.08931 16.5729V8.70944C2.08931 7.92235 2.72928 7.28239 3.51636 7.28239H3.55314V5.40294C3.55314 2.42378 5.97693 0 8.95609 0C11.9352 0.00367797 14.359 2.42746 14.359 5.40662ZM8.15429 12.9906C8.26463 13.0715 8.29405 13.1488 8.29405 13.2775C8.29037 13.8549 8.29037 14.4287 8.29037 15.0061C8.27934 15.2452 8.40071 15.4806 8.61403 15.5872C9.11792 15.8447 9.6218 15.4843 9.6218 15.0061V15.0025C9.6218 14.425 9.6218 13.8476 9.61812 13.2701C9.61812 13.1524 9.64387 13.0752 9.74685 12.998C10.2691 12.6118 10.442 11.9534 10.1809 11.376C9.92707 10.8132 9.30549 10.4822 8.7207 10.5999C8.06969 10.7323 7.6173 11.2546 7.60995 11.9056C7.60995 12.358 7.79017 12.7258 8.15429 12.9906ZM11.9941 5.40662C11.9941 3.72946 10.6296 2.36861 8.95609 2.36861C7.27893 2.36861 5.91808 3.73314 5.91808 5.40662V7.28607H11.9941V5.40662Z" fill="black"/>
</svg>
