<svg width="59" height="59" viewBox="0 0 59 59" fill="none" xmlns="http://www.w3.org/2000/svg">
<g id="Group">
<path id="Vector" d="M29.3001 38.2094C26.1232 38.2094 25.002 37.4619 23.9742 36.7144C23.6938 36.5275 23.507 36.3406 23.2267 36.2472C20.4235 34.5653 18.3679 31.6687 17.4335 27.5575C16.1254 27.0903 14.3501 25.6887 14.3501 22.325C14.3501 19.7087 15.5648 18.8678 15.6582 18.7744C16.1254 18.4941 16.686 18.5875 16.9663 19.0547C17.2467 19.5219 17.1532 20.0825 16.686 20.3628C16.2188 20.6431 16.1254 20.83 16.1254 22.4184C16.1254 25.5953 18.0876 25.9691 18.2745 25.9691C18.6482 26.0625 19.022 26.3428 19.1154 26.7166C19.676 29.3328 20.8907 32.8834 24.0676 34.7522C24.4413 34.9391 24.7217 35.1259 25.002 35.3128C25.9363 35.9669 26.6838 36.4341 29.2067 36.4341C31.8229 36.4341 32.477 35.9669 33.4114 35.3128C33.6917 35.1259 33.972 34.9391 34.3457 34.7522C37.5226 32.8834 38.8307 29.4263 39.2979 26.7166C39.3913 26.3428 39.7651 25.9691 40.1388 25.9691C40.3257 25.9691 42.2879 25.5953 42.2879 22.4184C42.2879 20.83 41.7273 20.3628 41.7273 20.3628C41.2601 20.0825 41.1667 19.5219 41.5404 19.0547C41.8207 18.5875 42.4748 18.4941 42.8485 18.8678C42.942 18.9612 44.1567 19.8956 44.1567 22.4184C44.1567 25.7822 42.3813 27.1838 41.0732 27.6509C40.1388 31.6688 38.1767 34.6588 35.2801 36.3406C34.9998 36.5275 34.7195 36.7144 34.5326 36.8078C33.5982 37.4619 32.477 38.2094 29.3001 38.2094Z" fill="#E3E3E3"/>
<path id="Vector_2" d="M16.2188 20.4563C15.8451 20.4563 15.5648 20.2694 15.3779 19.8956C15.191 19.4284 15.3779 18.8678 15.8451 18.6809C18.2745 17.5597 20.1432 15.1303 21.9185 10.7388C22.012 10.4584 22.2923 10.2716 22.5726 10.1781C22.8529 10.0847 23.2267 10.1781 23.4135 10.4584C26.1232 12.9813 29.9542 12.4206 32.477 12.0469C33.2245 11.9534 33.8785 11.86 34.3457 11.86C38.0832 11.86 39.5782 14.5697 40.606 16.5319C41.2601 17.84 41.7273 18.6809 42.3814 18.6809C42.942 18.6809 43.3157 19.0547 43.3157 19.6153C43.3157 20.1759 42.942 20.5497 42.3814 20.5497C40.606 20.5497 39.7651 18.9613 38.9242 17.4663C37.8963 15.5975 36.962 13.8222 34.3457 13.8222C33.972 13.8222 33.4114 13.9156 32.7573 14.0091C30.3279 14.3828 26.3101 14.9434 23.1332 12.7944C21.2645 16.9056 19.2088 19.335 16.5926 20.5497C16.4992 20.4563 16.3123 20.4563 16.2188 20.4563ZM57.3314 58.7656C56.7707 58.7656 56.397 58.3919 56.397 57.8313C56.397 52.6922 56.397 48.5809 49.1089 46.8056C43.0354 45.4041 35.8407 42.6009 35.8407 37.8356V34.0047C35.8407 33.4441 36.2145 33.0703 36.7751 33.0703C37.3357 33.0703 37.7095 33.4441 37.7095 34.0047V37.8356C37.7095 40.5453 42.0076 43.1616 49.4826 45.0303C58.2657 47.0859 58.2657 52.7856 58.2657 57.7378C58.2657 58.2984 57.892 58.7656 57.3314 58.7656ZM1.26885 57.8313H0.334473C0.334473 52.7856 0.334473 47.0859 9.1176 45.0303C16.5926 43.255 20.8907 40.6388 20.8907 37.8356V34.0047C20.8907 33.4441 21.2645 33.0703 21.8251 33.0703C22.3857 33.0703 22.7595 33.4441 22.7595 34.0047V37.8356C22.7595 42.6009 15.5648 45.4041 9.49135 46.8056C2.20322 48.5809 2.20322 52.6922 2.20322 57.7378L1.26885 57.8313Z" fill="#E3E3E3"/>
<path id="Vector_3" d="M29.3001 51.2906C23.9742 51.2906 18.8351 48.8613 15.2845 44.6566C14.9107 44.2828 15.0042 43.7222 15.3779 43.3484C15.7517 42.9747 16.3123 43.0681 16.686 43.4419C19.9563 47.2728 24.5348 49.4219 29.3001 49.4219C34.0654 49.4219 38.6438 47.2728 41.9142 43.4419C42.2879 43.0681 42.8485 42.9747 43.2223 43.3484C43.596 43.7222 43.6895 44.2828 43.3157 44.6566C39.7651 48.8613 34.626 51.2906 29.3001 51.2906ZM15.9385 20.7366C15.5648 20.7366 15.191 20.5497 15.0976 20.1759C14.3501 18.2138 14.3501 17.5597 14.3501 12.9813C14.3501 9.05688 16.7795 5.88001 19.3023 4.75876C21.2645 2.04907 24.3479 0.834381 29.3001 0.834381C31.7295 0.834381 34.0654 1.30157 36.0276 2.14251C39.2979 3.07688 42.1945 2.70313 42.1945 2.70313C42.6617 2.60969 43.1289 2.98344 43.2223 3.45063C43.2223 3.54407 43.6895 5.59969 42.4748 7.37501C43.6895 9.33719 44.1567 12.1403 44.1567 14.1025C44.1567 15.8778 44.1567 18.2138 43.4092 20.1759C43.2223 20.6431 42.6617 20.9234 42.1945 20.7366C41.7273 20.5497 41.447 19.9891 41.6339 19.5219C42.2879 17.9334 42.2879 15.8778 42.2879 14.1025C42.2879 12.2338 41.7273 9.43063 40.606 7.93563C40.3257 7.56188 40.3257 7.09469 40.606 6.72094C41.1667 5.97344 41.3535 5.22594 41.3535 4.57188C40.1389 4.57188 37.8963 4.57188 35.467 3.91782C35.3735 3.91782 35.3735 3.91782 35.2801 3.82438C33.5982 3.07688 31.5426 2.70313 29.3001 2.70313C23.7873 2.70313 21.9185 4.29157 20.7038 6.06688C20.6104 6.25376 20.4235 6.34719 20.2367 6.44063C18.2745 7.18813 16.2188 9.71094 16.2188 12.9813C16.2188 17.4663 16.2188 17.84 16.8729 19.4284C17.0598 19.8956 16.7795 20.4563 16.3123 20.6431C16.2188 20.7366 16.032 20.7366 15.9385 20.7366Z" fill="#E3E3E3"/>
</g>
</svg>
