<svg width="67" height="58" viewBox="0 0 67 58" fill="none" xmlns="http://www.w3.org/2000/svg">
<path d="M42.5046 46.3061C43.1302 46.3061 43.6374 45.7988 43.6374 45.1733C43.6374 44.5477 43.1302 44.0405 42.5046 44.0405C41.8789 44.0405 41.3713 44.5477 41.3713 45.1733C41.3713 45.7988 41.8789 46.3061 42.5046 46.3061Z" fill="#E3E3E3"/>
<path d="M66.7702 33.1154L64.4682 22.0525C63.9594 19.6749 62.6164 17.5282 60.6869 16.0078C59.1444 14.7921 57.3042 14.0135 55.2882 13.7119C56.8314 12.2642 57.7969 10.2075 57.7969 7.92979C57.7969 3.55736 54.2396 0.000106812 49.8672 0.000106812C45.4946 0.000106812 41.9375 3.55736 41.9375 7.92979C41.9375 10.2398 42.9304 12.3224 44.5119 13.773C39.1824 14.7867 35.1406 19.4805 35.1406 25.1007V34.9191C35.1406 37.2615 37.0462 39.1671 39.3887 39.1671C40.1042 39.1671 40.779 38.9892 41.3711 38.6755V40.0757C41.3711 40.7013 41.8783 41.2085 42.5039 41.2085C43.1296 41.2085 43.6367 40.7013 43.6367 40.0757V25.1006C43.6367 24.4751 43.1296 23.9678 42.5039 23.9678C41.8783 23.9678 41.3711 24.4751 41.3711 25.1006V34.9192C41.371 36.0121 40.4816 36.9014 39.3887 36.9014C38.2956 36.9014 37.4062 36.012 37.4062 34.9189V25.1006C37.4062 19.9919 41.5625 15.8357 46.6713 15.8357H48.7344V53.1855C48.7344 54.5909 47.5909 55.7344 46.1855 55.7344C44.7802 55.7344 43.6367 54.5909 43.6367 53.1855V50.2709C43.6367 49.6454 43.1296 49.1381 42.5039 49.1381C41.8783 49.1381 41.3711 49.6454 41.3711 50.2709V53.1855C41.3711 55.8403 43.5308 58 46.1855 58C47.663 58 48.9871 57.331 49.8709 56.28C50.7547 57.331 52.0789 58 53.5563 58C54.8383 58 56.0463 57.498 56.9579 56.5868C57.8698 55.6751 58.3716 54.4669 58.3709 53.1847L58.3638 42.4679H60.9598C61.3008 42.4679 61.6235 42.3144 61.8386 42.0499C62.0538 41.7854 62.1384 41.4382 62.0688 41.1043L61.4357 38.0625C62.0794 38.2491 62.7763 38.2857 63.4767 38.1399C65.77 37.6627 67.2474 35.4088 66.7702 33.1154ZM55.5311 7.92968C55.5311 10.665 53.5821 12.9537 50.9999 13.4799V2.37947C53.5821 2.90566 55.5311 5.19439 55.5311 7.92968ZM44.203 7.92968C44.203 5.19439 46.152 2.90566 48.7343 2.37947V13.4799C46.152 12.9537 44.203 10.665 44.203 7.92968ZM56.105 53.1862C56.1055 53.8626 55.8394 54.5012 55.3559 54.9846C54.8722 55.4682 54.2332 55.7344 53.5561 55.7344C52.1507 55.7344 51.0073 54.5909 51.0073 53.1855C51.0073 53.1416 51.0046 53.0982 50.9998 53.0556V42.4679H56.0979L56.105 53.1862ZM63.0152 35.9218C61.9451 36.1445 60.8933 35.4551 60.6705 34.3849C60.6705 34.3852 60.6705 34.3847 60.6705 34.3849L58.6703 24.7723C58.5428 24.1598 57.943 23.7664 57.3305 23.8941C56.718 24.0215 56.3248 24.6213 56.4522 25.2338L58.4513 34.8412C58.4516 34.8432 58.452 34.845 58.4524 34.8469C58.4532 34.8505 58.454 34.8541 58.4548 34.8578L59.5669 40.2024H51V15.8357H53.3538C57.8201 15.8357 61.3963 18.5245 62.2515 22.5203L64.5523 33.577C64.7749 34.6472 64.0853 35.6991 63.0152 35.9218Z" fill="#E3E3E3"/>
<path d="M7.50459 46.3061C8.13024 46.3061 8.6374 45.7988 8.6374 45.1733C8.6374 44.5477 8.13024 44.0405 7.50459 44.0405C6.87893 44.0405 6.37132 44.5477 6.37132 45.1733C6.37132 45.7988 6.87893 46.3061 7.50459 46.3061Z" fill="#E3E3E3"/>
<path d="M31.7702 33.1154L29.4682 22.0525C28.9594 19.6749 27.6164 17.5282 25.6869 16.0078C24.1444 14.7921 22.3042 14.0135 20.2882 13.7119C21.8314 12.2642 22.7969 10.2075 22.7969 7.92979C22.7969 3.55736 19.2396 0.000106812 14.8672 0.000106812C10.4946 0.000106812 6.9375 3.55736 6.9375 7.92979C6.9375 10.2398 7.93041 12.3224 9.51193 13.773C4.18239 14.7867 0.140625 19.4805 0.140625 25.1007V34.9191C0.140625 37.2615 2.04624 39.1671 4.38867 39.1671C5.10416 39.1671 5.77897 38.9892 6.37109 38.6755V40.0757C6.37109 40.7013 6.87825 41.2085 7.50391 41.2085C8.12956 41.2085 8.63672 40.7013 8.63672 40.0757V25.1006C8.63672 24.4751 8.12956 23.9678 7.50391 23.9678C6.87825 23.9678 6.37109 24.4751 6.37109 25.1006V34.9192C6.37098 36.0121 5.48161 36.9014 4.38867 36.9014C3.29562 36.9014 2.40625 36.012 2.40625 34.9189V25.1006C2.40625 19.9919 6.56254 15.8357 11.6713 15.8357H13.7344V53.1855C13.7344 54.5909 12.5909 55.7344 11.1855 55.7344C9.78018 55.7344 8.63672 54.5909 8.63672 53.1855V50.2709C8.63672 49.6454 8.12956 49.1381 7.50391 49.1381C6.87825 49.1381 6.37109 49.6454 6.37109 50.2709V53.1855C6.37109 55.8403 8.5308 58 11.1855 58C12.663 58 13.9871 57.331 14.8709 56.28C15.7547 57.331 17.0789 58 18.5563 58C19.8383 58 21.0463 57.498 21.9579 56.5868C22.8698 55.6751 23.3716 54.4669 23.3709 53.1847L23.3638 42.4679H25.9598C26.3008 42.4679 26.6235 42.3144 26.8386 42.0499C27.0538 41.7854 27.1384 41.4382 27.0688 41.1043L26.4357 38.0625C27.0794 38.2491 27.7763 38.2857 28.4767 38.1399C30.77 37.6627 32.2474 35.4088 31.7702 33.1154ZM20.5311 7.92968C20.5311 10.665 18.5821 12.9537 15.9999 13.4799V2.37947C18.5821 2.90566 20.5311 5.19439 20.5311 7.92968ZM9.20301 7.92968C9.20301 5.19439 11.152 2.90566 13.7343 2.37947V13.4799C11.152 12.9537 9.20301 10.665 9.20301 7.92968ZM21.105 53.1862C21.1055 53.8626 20.8394 54.5012 20.3559 54.9846C19.8722 55.4682 19.2332 55.7344 18.5561 55.7344C17.1507 55.7344 16.0073 54.5909 16.0073 53.1855C16.0073 53.1416 16.0046 53.0982 15.9998 53.0556V42.4679H21.0979L21.105 53.1862ZM28.0152 35.9218C26.9451 36.1445 25.8933 35.4551 25.6705 34.3849C25.6705 34.3852 25.6705 34.3847 25.6705 34.3849L23.6703 24.7723C23.5428 24.1598 22.943 23.7664 22.3305 23.8941C21.718 24.0215 21.3248 24.6213 21.4522 25.2338L23.4513 34.8412C23.4516 34.8432 23.452 34.845 23.4524 34.8469C23.4532 34.8505 23.454 34.8541 23.4548 34.8578L24.5669 40.2024H16V15.8357H18.3538C22.8201 15.8357 26.3963 18.5245 27.2515 22.5203L29.5523 33.577C29.7749 34.6472 29.0853 35.6991 28.0152 35.9218Z" fill="#E3E3E3"/>
</svg>
