<svg width="58" height="58" viewBox="0 0 58 58" fill="none" xmlns="http://www.w3.org/2000/svg">
<g id="gender-neutral (3) 1">
<g id="Group">
<g id="Group_2">
<path id="Vector" d="M20.5044 46.3061C21.13 46.3061 21.6372 45.7988 21.6372 45.1733C21.6372 44.5477 21.13 44.0405 20.5044 44.0405H20.5036C19.8779 44.0405 19.3711 44.5477 19.3711 45.1733C19.3711 45.7988 19.8787 46.3061 20.5044 46.3061Z" fill="#0C70C1"/>
<path id="Vector_2" d="M44.7702 33.1154L42.4682 22.0525C41.9594 19.6749 40.6164 17.5282 38.6869 16.0078C37.1444 14.7922 35.3042 14.0135 33.2882 13.7119C34.8314 12.2642 35.7969 10.2076 35.7969 7.92981C35.7969 3.55738 32.2396 0.00012207 27.8672 0.00012207C23.4946 0.00012207 19.9375 3.55738 19.9375 7.92981C19.9375 10.2398 20.9304 12.3224 22.5119 13.773C17.1824 14.7867 13.1406 19.4805 13.1406 25.1008V34.9191C13.1406 37.2615 15.0462 39.1671 17.3887 39.1671C18.1042 39.1671 18.779 38.9893 19.3711 38.6755V40.0757C19.3711 40.7013 19.8783 41.2086 20.5039 41.2086C21.1296 41.2086 21.6367 40.7013 21.6367 40.0757V25.1006C21.6367 24.4751 21.1296 23.9678 20.5039 23.9678C19.8783 23.9678 19.3711 24.4751 19.3711 25.1006V34.9192C19.371 36.0121 18.4816 36.9014 17.3887 36.9014C16.2956 36.9014 15.4062 36.012 15.4062 34.919V25.1006C15.4062 19.9919 19.5625 15.8357 24.6713 15.8357H26.7344V53.1856C26.7344 54.5909 25.5909 55.7344 24.1855 55.7344C22.7802 55.7344 21.6367 54.5909 21.6367 53.1856V50.2709C21.6367 49.6454 21.1296 49.1381 20.5039 49.1381C19.8783 49.1381 19.3711 49.6454 19.3711 50.2709V53.1856C19.3711 55.8403 21.5308 58 24.1855 58C25.663 58 26.9871 57.331 27.8709 56.2801C28.7547 57.331 30.0789 58 31.5563 58C32.8383 58 34.0463 57.4981 34.9579 56.5868C35.8698 55.6751 36.3716 54.4669 36.3709 53.1848L36.3638 42.4679H38.9598C39.3008 42.4679 39.6235 42.3144 39.8386 42.0499C40.0538 41.7854 40.1384 41.4382 40.0688 41.1043L39.4357 38.0625C40.0794 38.2491 40.7763 38.2857 41.4767 38.1399C43.77 37.6627 45.2474 35.4088 44.7702 33.1154ZM33.5311 7.9297C33.5311 10.665 31.5821 12.9537 28.9999 13.4799V2.37948C31.5821 2.90567 33.5311 5.19441 33.5311 7.9297ZM22.203 7.9297C22.203 5.19441 24.152 2.90567 26.7343 2.37948V13.4799C24.152 12.9537 22.203 10.665 22.203 7.9297ZM34.105 53.1862C34.1055 53.8626 33.8394 54.5012 33.3559 54.9846C32.8722 55.4682 32.2332 55.7344 31.5561 55.7344C30.1507 55.7344 29.0073 54.5909 29.0073 53.1856C29.0073 53.1416 29.0046 53.0982 28.9998 53.0556V42.4679H34.0979L34.105 53.1862ZM41.0152 35.9218C39.9451 36.1445 38.8933 35.4551 38.6705 34.3849C38.6705 34.3847 38.6704 34.3845 38.6704 34.3843L36.6703 24.7724C36.5428 24.1598 35.943 23.7664 35.3305 23.8941C34.718 24.0215 34.3248 24.6213 34.4522 25.2339L36.4513 34.8412C36.4516 34.8432 36.452 34.845 36.4524 34.8469C36.4532 34.8505 36.454 34.8542 36.4548 34.8578L37.5669 40.2024H29V15.8357H31.3538C35.8201 15.8357 39.3963 18.5246 40.2515 22.5203L42.5523 33.577C42.7749 34.6472 42.0853 35.6991 41.0152 35.9218Z" fill="#0C70C1"/>
</g>
</g>
</g>
</svg>
