<svg width="48" height="48" viewBox="0 0 48 48" fill="none" xmlns="http://www.w3.org/2000/svg">
<g id="close (1) 1">
<g id="Group">
<path id="Vector" d="M44.558 44.5575C44.4186 44.697 44.2532 44.8076 44.0711 44.8831C43.889 44.9586 43.6938 44.9974 43.4967 44.9974C43.2996 44.9974 43.1044 44.9586 42.9223 44.8831C42.7402 44.8076 42.5748 44.697 42.4355 44.5575L24.0005 26.1225L5.55795 44.5575C5.27649 44.839 4.89475 44.9971 4.4967 44.9971C4.09866 44.9971 3.71692 44.839 3.43546 44.5575C3.15399 44.276 2.99587 43.8943 2.99587 43.4962C2.99587 43.0982 3.15399 42.7165 3.43546 42.435L21.878 24L3.44295 5.5575C3.16149 5.27604 3.00337 4.89429 3.00337 4.49625C3.00337 4.0982 3.16149 3.71646 3.44295 3.435C3.72441 3.15354 4.10616 2.99541 4.5042 2.99541C4.90225 2.99541 5.28399 3.15354 5.56545 3.435L24.0005 21.8775L42.443 3.4425C42.7299 3.19676 43.099 3.06835 43.4765 3.08293C43.854 3.09751 44.2122 3.25401 44.4793 3.52115C44.7464 3.7883 44.9029 4.1464 44.9175 4.52392C44.9321 4.90143 44.8037 5.27055 44.558 5.5575L26.123 24L44.558 42.4425C44.8373 42.7235 44.9941 43.1037 44.9941 43.5C44.9941 43.8963 44.8373 44.2765 44.558 44.5575Z" fill="#E3E3E3"/>
</g>
</g>
</svg>
