<svg width="58" height="58" viewBox="0 0 58 58" fill="none" xmlns="http://www.w3.org/2000/svg">
<g id="smoking 1">
<g id="Group">
<path id="Vector" d="M47.8047 32.3984C47.8047 33.3369 48.5655 34.0977 49.5039 34.0977C50.4423 34.0977 51.2031 33.3369 51.2031 32.3984C51.2031 24.752 47.231 21.7729 43.7266 19.1445C40.4441 16.6827 37.6094 14.5566 37.6094 8.60938C37.6094 7.67095 36.8486 6.91016 35.9102 6.91016C34.9717 6.91016 34.2109 7.67095 34.2109 8.60938C34.2109 16.2559 38.183 19.2349 41.6875 21.8633C44.9699 24.3251 47.8047 26.4512 47.8047 32.3984ZM51.2031 8.60938C51.2031 7.67095 50.4423 6.91016 49.5039 6.91016C48.5655 6.91016 47.8047 7.67095 47.8047 8.60938C47.8047 15.9208 49.7617 18.8565 51.4885 21.4464C53.0894 23.8479 54.6016 26.1161 54.6016 32.3984C54.6016 33.3369 55.3624 34.0977 56.3008 34.0977C57.2392 34.0977 58 33.3369 58 32.3984C58 25.087 56.043 22.1514 54.3162 19.5614C52.7153 17.16 51.2031 14.8917 51.2031 8.60938ZM56.3008 37.4961H1.69922C0.760797 37.4961 0 38.2569 0 39.1953V49.3906C0 50.329 0.760797 51.0898 1.69922 51.0898H56.3008C57.2392 51.0898 58 50.329 58 49.3906V39.1953C58 38.2569 57.2392 37.4961 56.3008 37.4961ZM47.8047 40.8945V47.6914H23.9023V40.8945H47.8047ZM3.39844 40.8945H20.5039V47.6914H3.39844V40.8945ZM54.6016 47.6914H51.2031V40.8945H54.6016V47.6914Z" fill="#0C70C1"/>
</g>
<rect id="Rectangle 7" x="7.56543" y="17.6522" width="58" height="3.78261" transform="rotate(37.7986 7.56543 17.6522)" fill="#0C70C1"/>
</g>
</svg>
