<svg width="67" height="67" viewBox="0 0 67 67" fill="none" xmlns="http://www.w3.org/2000/svg">
<g id="mark 1">
<g id="Group">
<path id="Vector" d="M55.024 16.8756L27.219 45.6856L11.9556 30.4431C11.5502 30.0489 11.0049 29.8318 10.4394 29.8396C9.87401 29.8475 9.33487 30.0796 8.94061 30.485C8.54635 30.8904 8.32927 31.4358 8.33712 32.0012C8.34497 32.5666 8.57712 33.1057 8.98248 33.5L25.7325 50.25C25.9281 50.444 26.1601 50.5976 26.4152 50.7018C26.6703 50.806 26.9435 50.8588 27.219 50.8572C27.4975 50.8533 27.7725 50.7939 28.0277 50.6825C28.283 50.571 28.5135 50.4098 28.7056 50.2081L58.0181 19.8487C58.2323 19.6561 58.4044 19.4214 58.5237 19.1593C58.643 18.8971 58.707 18.6131 58.7115 18.3251C58.7161 18.0371 58.6612 17.7513 58.5502 17.4855C58.4393 17.2196 58.2747 16.9796 58.0667 16.7803C57.8588 16.581 57.6119 16.4268 57.3416 16.3272C57.0713 16.2277 56.7834 16.185 56.4959 16.2018C56.2083 16.2186 55.9273 16.2945 55.6705 16.4249C55.4136 16.5553 55.1864 16.7372 55.0031 16.9594L55.024 16.8756Z" fill="#E3E3E3"/>
</g>
</g>
</svg>
